<svg xmlns="http://www.w3.org/2000/svg" viewBox="0 0 1513.12 345.25"><defs><style>.cls-1{fill:#76a5fe;}.cls-2{fill:#a476fd;}.cls-3{fill:#a576ff;}.cls-4{fill:#76a6ff;}</style></defs><g id="图层_2" data-name="图层 2"><g id="图层_1-2" data-name="图层 1"><path class="cls-1" d="M992.09,279.5H475.58a15.37,15.37,0,0,0-1.92,0c-1.86.27-2.46-.41-2.42-2.34.14-5.51.13-11,0-16.53,0-1.95.62-2.61,2.45-2.35a9.88,9.88,0,0,0,1.44,0h1034c4.53,0,3.93-.57,4,3.92,0,5,0,10.06,0,15.09,0,1.61-.37,2.42-2.11,2.2a15.56,15.56,0,0,0-2.16,0Z"/><path class="cls-2" d="M893.28,117.47c6.14,0,11.79,0,17.44,0,1.11,0,1.44.89,1.93,1.57l27.46,38.37L957.66,182c.22.3.47.59,1.12,1.41v-3c0-20.12,0-40.25,0-60.37,0-2,.47-2.63,2.51-2.54,3.91.16,7.83.15,11.74,0,2-.07,2.62.44,2.58,2.5-.13,6.7-.05,13.41-.05,20.12,0,23.56,0,47.11.05,70.67,0,2.25-.64,2.87-2.81,2.75-3-.18-6.07-.12-9.11,0a3.66,3.66,0,0,1-3.54-1.77q-19.08-27-38.27-53.88L894.4,119.15C894.13,118.76,893.88,118.37,893.28,117.47Z"/><path class="cls-1" d="M1211.16,117.47c6,0,11.54,0,17.13,0,1.3,0,1.71,1,2.3,1.81l44.46,62.12c.32.45.67.88,1.43,1.88v-3c0-20,0-40.09-.06-60.13,0-2.23.61-2.86,2.8-2.76,3.91.17,7.83.14,11.75,0,1.79-.06,2.3.47,2.28,2.27-.08,11.18,0,22.36,0,33.53,0,19.17,0,38.33.06,57.5,0,2.25-.65,2.85-2.81,2.73-3.1-.18-6.23-.1-9.35,0a3.1,3.1,0,0,1-3-1.47q-33-46.56-66.17-93.07C1211.75,118.58,1211.58,118.23,1211.16,117.47Z"/><path class="cls-2" d="M1379.39,213.41c-7.67.06-15.33.26-22.82-1.87-19.65-5.59-33.23-20.14-35.64-40.74-3-26.07,14.16-48.68,40.29-52.86,10.58-1.69,21.21-.6,31.81-1,1,0,1.39.45,1.38,1.44,0,4.16-.06,8.31,0,12.46,0,1.66-1,1.48-2.06,1.48-7.51,0-15-.28-22.54.12-11,.57-20.07,5-26.18,14.45-8.6,13.31-6.62,31.72,4.61,42.46,6,5.73,13.43,8.23,21.55,8.53,7.34.28,14.71.15,22.06.06,1.9,0,2.7.35,2.59,2.46-.18,3.5-.17,7,0,10.53.11,2.1-.68,2.54-2.6,2.48C1387.7,213.32,1383.54,213.41,1379.39,213.41Z"/><path class="cls-2" d="M523.46,117.09c6,0,11.58,0,17.16,0,1.42,0,1.72.9,2.08,1.88q5.56,15.26,11.13,30.53,10.95,30,21.89,59.91c1.69,4.66,1.89,4-2.68,4-4.08,0-8.15-.06-12.23,0a2.48,2.48,0,0,1-2.75-1.94c-9.06-23.31-17.91-46.7-26-70.35C529.29,133.26,526.42,125.42,523.46,117.09Z"/><path class="cls-1" d="M743.39,132.85c-5.37.29-11.67-.47-17.94.9-12.72,2.77-23,14.51-23.85,27.55-.15,2.31-.3,4.61-.34,6.92,0,1.12-.41,1.55-1.55,1.54-5,0-9.91,0-14.87,0-1.23,0-1.42-.59-1.43-1.63-.22-13.43,3.16-25.69,12.67-35.53A48.07,48.07,0,0,1,725.55,118c10.82-1.3,21.71-.29,32.57-.58,1.25,0,1.68.45,1.67,1.68,0,4-.06,8,0,12,0,1.38-.5,1.78-1.82,1.76C753.42,132.81,748.86,132.85,743.39,132.85Z"/><path class="cls-2" d="M700.12,213.41c-5.37,0-10,0-14.64,0-1.52,0-2.14-.35-2.09-2,.1-3.82.11-7.66,0-11.49,0-1.65.61-2,2.1-2,8.07.06,16.14.14,24.2,0,8.93-.15,17-2.71,23.41-9.24a30.13,30.13,0,0,0,8.84-23.4c-.09-1.86.08-2.93,2.48-2.81,4.46.23,9,.11,13.42,0,1.42,0,1.89.42,2,1.89,1.32,23.24-15.41,43.72-39.66,48C713.25,213.68,706.31,213.3,700.12,213.41Z"/><path class="cls-1" d="M1039.43,133.28c-12.15,0-24.29-.05-36.44,0-2,0-2.59-.58-2.51-2.55.16-3.74.11-7.5,0-11.25,0-1.49.33-2.09,2-2.09q37.17.07,74.34,0c1.47,0,1.93.48,1.9,1.93-.08,3.91-.13,7.83,0,11.73.07,1.91-.68,2.22-2.37,2.21C1064.05,133.25,1051.74,133.28,1039.43,133.28Z"/><path class="cls-1" d="M514.82,139.29c2.85,7.53,5.59,14.84,8.38,22.12a2.52,2.52,0,0,1-.26,2q-9.88,24.11-19.75,48.21c-.48,1.16-1,1.81-2.39,1.79-4.79-.09-9.59,0-14.38,0-1.11,0-1.91,0-1.27-1.53q14.69-36.09,29.32-72.19C514.49,139.63,514.57,139.58,514.82,139.29Z"/><path class="cls-1" d="M827.54,132.85c-11.11,0-22.22-.06-33.32,0-2,0-2.59-.57-2.51-2.54.16-3.66.11-7.34,0-11,0-1.49.48-1.9,1.93-1.9q34,.06,68.08,0c1.61,0,2,.52,2,2.06-.09,3.75-.11,7.51,0,11.25.06,1.72-.54,2.14-2.18,2.13C850.23,132.82,838.88,132.85,827.54,132.85Z"/><path class="cls-2" d="M1145.43,132.85c-11.19,0-22.38,0-33.57,0-1.79,0-2.56-.32-2.46-2.33.17-3.66.1-7.34,0-11,0-1.47.28-2.11,1.95-2.11q34.07.07,68.12,0c1.66,0,2,.63,2,2.1-.08,3.76-.12,7.51,0,11.26.06,1.76-.6,2.1-2.2,2.09C1168,132.82,1156.7,132.85,1145.43,132.85Z"/><path class="cls-2" d="M1145.29,213.41c-11.1,0-22.21,0-33.31.05-1.91,0-2.68-.38-2.58-2.47.17-3.66.09-7.34,0-11,0-1.35.23-2,1.81-2q34.15.08,68.3,0c1.52,0,1.89.55,1.86,1.95-.08,3.75-.13,7.51,0,11.25.07,1.86-.59,2.26-2.33,2.25C1167.82,213.38,1156.55,213.41,1145.29,213.41Z"/><path class="cls-1" d="M1463.37,132.85c-11.18,0-22.36,0-33.55,0-1.87,0-2.49-.49-2.41-2.4.14-3.5.15-7,0-10.53-.08-2,.55-2.55,2.54-2.54,14.94.08,29.88,0,44.81,0,7.43,0,14.86,0,22.29,0,1.67,0,2.22.5,2.17,2.17-.11,3.67-.13,7.35,0,11,.06,1.82-.53,2.29-2.3,2.28C1485.74,132.81,1474.55,132.85,1463.37,132.85Z"/><path class="cls-1" d="M827.55,213.41c-11.11,0-22.21,0-33.32.05-2,0-2.6-.56-2.52-2.54.16-3.67.11-7.34,0-11,0-1.47.44-1.91,1.91-1.91q33.92.06,67.83,0c1.47,0,1.94.45,1.9,1.91-.08,3.75-.11,7.5,0,11.25.07,1.79-.47,2.31-2.27,2.29C849.92,213.37,838.73,213.41,827.55,213.41Z"/><path class="cls-1" d="M1463.32,213.41c-11.11,0-22.21,0-33.32,0-1.92,0-2.7-.4-2.6-2.48.17-3.58.12-7.18,0-10.77-.05-1.63.39-2.21,2.12-2.2q33.68.08,67.36,0c1.62,0,2.25.35,2.19,2.1-.12,3.74-.12,7.5,0,11.25.06,1.75-.6,2.1-2.21,2.09C1485.7,213.39,1474.51,213.41,1463.32,213.41Z"/><path class="cls-2" d="M1048,181.12c0,10-.06,20,0,29.95,0,1.92-.55,2.44-2.42,2.39-4.15-.14-8.31-.1-12.47,0-1.51,0-2.1-.38-2.09-2q.06-30.42,0-60.85c0-1.5.54-1.92,2-1.89,4.24.07,8.48.1,12.71,0,1.77-.05,2.32.43,2.31,2.26C1048,161,1048,171.06,1048,181.12Z"/><path class="cls-1" d="M892.15,138.81c1.52,2.09,3.05,4.17,4.55,6.27,3.47,4.87,6.9,9.77,10.41,14.61a7,7,0,0,1,1.44,4.41q-.09,23.34,0,46.68c0,2.09-.51,2.78-2.66,2.68-3.9-.17-7.83-.15-11.74,0-2,.07-2.57-.49-2.55-2.51.08-15.33,0-30.65,0-46V139Z"/><path class="cls-2" d="M1210,138.85c3.26,4.54,6.12,9.26,9.7,13.36,5.51,6.31,7.36,13.26,6.93,21.62-.64,12.33-.21,24.72-.12,37.09,0,2-.51,2.61-2.52,2.54-4.15-.15-8.31-.08-12.46,0-1.25,0-1.88-.25-1.87-1.7q0-36.14,0-72.27C1209.7,139.33,1209.82,139.21,1210,138.85Z"/><path class="cls-2" d="M823.94,172.57c-9.91,0-19.81,0-29.72.05-2,0-2.59-.59-2.51-2.55.15-3.67.09-7.34,0-11,0-1.34.41-1.79,1.78-1.79q30.66.06,61.34,0c1.38,0,1.78.46,1.75,1.79-.07,3.67-.13,7.35,0,11,.08,2-.46,2.57-2.49,2.55C844.06,172.52,834,172.57,823.94,172.57Z"/><path class="cls-1" d="M1142,157.3c10,0,20,0,30,0,1.81,0,2.55.37,2.46,2.35-.16,3.59-.11,7.19,0,10.78,0,1.6-.39,2.22-2.13,2.22q-30.43-.08-60.89,0c-1.44,0-2-.39-1.93-1.89.09-3.82.11-7.66,0-11.49-.05-1.66.61-2,2.09-1.95C1121.65,157.32,1131.8,157.3,1142,157.3Z"/><path class="cls-2" d="M1459.8,172.57c-10,0-20,0-29.94,0-1.85,0-2.53-.44-2.46-2.39.15-3.66.1-7.33,0-11,0-1.41.37-2,1.88-1.95q30.54.06,61.08,0c1.7,0,2,.68,1.93,2.12-.08,3.67-.13,7.35,0,11,.07,1.88-.64,2.23-2.35,2.22C1479.92,172.54,1469.86,172.57,1459.8,172.57Z"/><path class="cls-3" d="M207.2,341.79c93.3-19,153.7-110.3,134.8-203.5S231.7-15.51,138.5,3.49a12.9,12.9,0,1,0,5.1,25.3c79.3-16.1,157,35.3,173.1,114.6s-35.3,157-114.6,173.1a147.36,147.36,0,0,1-100.2-15.3,12.64,12.64,0,0,0-9.9-1.1l-43.3,12.7,6.4-46.2a12,12,0,0,0-2.3-9.2A147.53,147.53,0,0,1,27.7,149a12.91,12.91,0,0,0-25.5-4.1A173.14,173.14,0,0,0,28.8,268l-8.5,61a12.81,12.81,0,0,0,16.3,14.1L94,326.29A173.43,173.43,0,0,0,207.2,341.79Z"/><path class="cls-4" d="M149.7,58.59a116.34,116.34,0,1,1,46.4,228,12.9,12.9,0,0,1-5.1-25.3,90.55,90.55,0,1,0-86.9-29.9,13,13,0,0,1-1.4,18.2,12.09,12.09,0,0,1-5.8,2.8,13.16,13.16,0,0,1-12.4-4.2,116.45,116.45,0,0,1,65.2-189.6Z"/><path class="cls-3" d="M183.8,226.59a55.16,55.16,0,0,0-22-108.1,54.46,54.46,0,0,0-40.7,35,12.91,12.91,0,0,0,24.2,9,29.35,29.35,0,1,1,33.4,38.9,12.86,12.86,0,1,0,5.1,25.2Z"/></g></g></svg>