<?xml version="1.0" encoding="utf-8"?>
<!-- Generator: Adobe Illustrator 25.2.1, SVG Export Plug-In . SVG Version: 6.00 Build 0)  -->
<svg version="1.1" id="图层_1" xmlns="http://www.w3.org/2000/svg" xmlns:xlink="http://www.w3.org/1999/xlink" x="0px" y="0px"
	 viewBox="0 0 500 500" style="enable-background:new 0 0 500 500;" xml:space="preserve">
<style type="text/css">
	.st0{fill:#A576FF;}
	.st1{fill:#76A6FF;}
</style>
<g id="_x23_000000ff">
</g>
<g>
	<path class="st0" d="M289,415.8c93.3-19,153.7-110.3,134.8-203.5C404.9,119,313.5,58.5,220.3,77.5c-7,1.4-11.5,8.2-10.1,15.2
		s8.2,11.5,15.2,10.1c79.3-16.1,157,35.3,173.1,114.6s-35.3,157-114.6,173.1c-34.1,6.9-69.7,1.5-100.2-15.3c-3-1.7-6.5-2.1-9.9-1.1
		l-43.3,12.7l6.4-46.2c0.5-3.3-0.3-6.6-2.3-9.2c-11.8-16.7-19.9-35.4-24-55.6c-3.6-17.5-3.9-35.3-1.1-52.8c1.1-7-3.6-13.6-10.7-14.8
		c-7-1.1-13.6,3.6-14.8,10.7c-3.3,20.6-2.9,41.5,1.3,62.1c4.5,22,13,42.5,25.3,61l-8.5,61c-0.6,4.3,1,8.7,4.3,11.5s7.8,3.9,12,2.6
		l57.4-16.8C210.8,418.1,250.7,423.6,289,415.8z"/>
	<path class="st1" d="M231.5,132.6c62.8-12.8,124.4,27.9,137.2,90.8c12.8,62.8-27.9,124.4-90.8,137.2c-7,1.4-13.8-3.1-15.2-10.1
		c-1.4-7,3.1-13.8,10.1-15.2c48.9-9.9,80.7-57.8,70.7-106.8c-9.9-48.9-57.8-80.7-106.8-70.7c-48.9,9.9-80.7,57.8-70.7,106.8
		c3.1,15.1,9.9,29.2,19.9,40.8c4.6,5.4,4,13.5-1.4,18.2c-1.7,1.5-3.7,2.4-5.8,2.8c-4.4,0.9-9.2-0.6-12.4-4.2
		c-12.8-14.9-21.6-33-25.5-52.4C127.9,206.9,168.6,145.4,231.5,132.6z"/>
	<path class="st0" d="M265.6,300.6c29.8-6,49.1-35.2,43-65c-6-29.8-35.2-49.1-65-43.1c-18.9,3.8-34.1,16.9-40.7,35
		c-2.5,6.7,1,14.1,7.6,16.6s14.1-1,16.6-7.6c3.5-9.6,11.7-16.6,21.7-18.6c15.8-3.2,31.4,7,34.6,22.9c3.2,15.8-7,31.4-22.9,34.6
		c-7,1.4-11.5,8.2-10.1,15.2C251.8,297.5,258.6,302,265.6,300.6z"/>
</g>
</svg>
