<svg id="图层_1" data-name="图层 1" xmlns="http://www.w3.org/2000/svg" viewBox="0 0 1547 389.37"><defs><style>.cls-1{fill:#76a6ff;}.cls-2{fill:#a576fe;}.cls-3{fill:#233142;fill-opacity:0;}</style></defs><g id="SvgjsG1636"><path class="cls-1" d="M351.68,690.84a8.79,8.79,0,0,1-4.9-1.45,9,9,0,0,1-3.78-9.64l15.89-64.22H297.26a8.9,8.9,0,0,1-8.75-7.08L235.19,354.64a8.9,8.9,0,0,1,1.52-7.11,9,9,0,0,1,6.29-3.64l394.1-42.35a8.93,8.93,0,0,1,9.82,10.07L611.86,572a9,9,0,0,1-8.87,7.77H500.14L357.14,689a9,9,0,0,1-5.46,1.84Z" transform="translate(-235 -301.48)"/></g><polygon class="cls-2" points="592.34 220.31 610.51 220.31 575.38 123.98 557 123.98 577.39 181.54 592.34 220.31"/><polygon class="cls-1" points="518.03 220.31 535.8 220.31 556.8 169.01 548.12 145.99 518.03 220.31"/><path class="cls-1" d="M1002.94,425.66a56.92,56.92,0,0,0-20.59,3.64,49.78,49.78,0,0,0-16.16,10.09,42.17,42.17,0,0,0-10.5,15.35,50.54,50.54,0,0,0-3.63,17.17v6h17.77v-6a33.47,33.47,0,0,1,2.22-11.11,29.53,29.53,0,0,1,17.16-17.37,37.83,37.83,0,0,1,13.73-2.42h25.45V425.66Z" transform="translate(-235 -301.48)"/><path class="cls-2" d="M1010.62,471.1v3.84h.2a41.92,41.92,0,0,1-2.42,11.91,31.57,31.57,0,0,1-6.67,10.3,30.79,30.79,0,0,1-10.5,6.86,37.62,37.62,0,0,1-13.73,2.43H952.06v15.34H977.5a57.22,57.22,0,0,0,20.6-3.63,49.59,49.59,0,0,0,16.15-10.1,47.35,47.35,0,0,0,10.5-15.34,42.72,42.72,0,0,0,3.64-17.77V471.1Z" transform="translate(-235 -301.48)"/><polygon class="cls-1" points="825.25 124.19 897.14 124.19 897.14 139.53 825.25 139.53 825.25 124.19"/><rect class="cls-1" x="825.25" y="204.96" width="71.69" height="15.35"/><polygon class="cls-2" points="825.25 164.17 890.07 164.17 890.07 179.31 825.25 179.31 825.25 164.17"/><polygon class="cls-1" points="925.37 220.31 942.13 220.31 942.13 168.81 925.37 145.19 925.37 220.31 925.37 220.31"/><polygon class="cls-2" points="992.42 124.19 992.42 190.62 944.96 124.19 926.79 124.19 995.04 220.31 1008.98 220.31 1008.98 124.19 992.42 124.19"/><polygon class="cls-1" points="1081.63 139.94 1112.12 139.94 1112.12 124.19 1034.18 124.19 1034.18 139.94 1081.63 139.94"/><rect class="cls-2" x="1064.67" y="155.69" width="16.96" height="64.62"/><rect class="cls-2" x="1143.18" y="124.19" width="71.89" height="15.35"/><rect class="cls-2" x="1143.18" y="204.96" width="71.69" height="15.35"/><polygon class="cls-1" points="1143.18 164.17 1208 164.17 1208 179.31 1143.18 179.31 1143.18 164.17"/><polygon class="cls-2" points="1243.3 220.31 1260.06 220.31 1260.06 168.81 1243.3 145.19 1243.3 220.31 1243.3 220.31"/><polygon class="cls-1" points="1310.35 124.19 1310.35 190.62 1262.89 124.19 1244.72 124.19 1312.97 220.31 1326.9 220.31 1326.9 124.19 1310.35 124.19 1310.35 124.19"/><path class="cls-2" d="M1593.16,454.34a41.7,41.7,0,0,1,10.5-15.15,46,46,0,0,1,16.16-10.09,57,57,0,0,1,20.8-3.84H1663v15.35h-22.21a34.72,34.72,0,0,0-13.93,2.62,30.67,30.67,0,0,0-17.37,17.37,36.8,36.8,0,0,0,0,26.25,30.67,30.67,0,0,0,6.87,10.5,31.25,31.25,0,0,0,10.5,6.66,39.22,39.22,0,0,0,13.93,2.43H1663v15.34h-22.41a56.15,56.15,0,0,1-20.6-3.63,54,54,0,0,1-16.36-10.3,43.51,43.51,0,0,1-10.5-15.35,49.24,49.24,0,0,1-3.83-19,47.82,47.82,0,0,1,3.83-19.18Z" transform="translate(-235 -301.48)"/><rect class="cls-1" x="1461.11" y="124.19" width="71.89" height="15.35"/><rect class="cls-1" x="1461.11" y="204.96" width="71.69" height="15.35"/><rect class="cls-2" x="1461.11" y="164.17" width="64.82" height="15.15"/><rect class="cls-3" x="489" y="335.78" width="4.28" height="4.28"/><rect class="cls-1" x="504.76" y="265.26" width="1042.24" height="21.27"/></svg>